<svg width="1281" height="248" viewBox="0 0 1281 248" fill="none" xmlns="http://www.w3.org/2000/svg">
<path d="M61.4697 0H117.24V96.053H213.022V0.0994338H269.046V247.54H213.276V151.62H117.494V247.573H61.4697V0Z" fill="#CDFB50"/>
<path d="M277.882 150.799V96.3018H325.494C331.502 96.3018 334.007 98.7876 334.007 104.687V143.549C334.007 148.455 331.35 151.305 326.628 151.305C310.802 151.371 295.011 151.305 279.168 151.305C278.83 151.305 278.609 151.305 277.882 151.305V150.799Z" fill="#CDFB50"/>
<path d="M52.4653 151.339C37.1306 151.339 22.0668 151.405 6.95221 151.306C2.92391 151.306 0.0634712 148.422 0.0634712 144.511C-0.0211571 130.756 -0.0211571 116.968 0.0634712 103.213C0.0634712 99.2357 2.90698 96.3853 6.88451 96.3522C21.9991 96.2527 37.0968 96.319 52.4653 96.319V151.356V151.322V151.339Z" fill="#CDFB50"/>
<path d="M1280.57 41.4336L1219.26 139.072V206.14H1183.54V139.072L1122.23 41.4336H1162.3L1201.4 108.738L1240.5 41.4336H1280.57Z" fill="#CDFB50"/>
<path d="M1071.45 41.4336H1107.41V206.14H1071.45V137.887H1007.49V206.14H971.523V41.4336H1007.49V106.368H1071.45V41.4336Z" fill="#CDFB50"/>
<path d="M952.946 41.4336V72.7159H903.465V206.14H867.501V72.7159H818.021V41.4336H952.946Z" fill="#CDFB50"/>
<path d="M761.877 174.858H838.632V206.14H725.913V41.4336H761.877V174.858Z" fill="#CDFB50"/>
<path d="M623.749 175.569H701.711V206.14H587.785V41.4336H700.263V72.005H623.749V107.079H691.332V137.651H623.749V175.569Z" fill="#CDFB50"/>
<path d="M520.828 41.4336H556.792V206.14H520.828V137.887H456.865V206.14H420.901V41.4336H456.865V106.368H520.828V41.4336Z" fill="#CDFB50"/>
</svg>
