<svg width="860" height="165" viewBox="420.9 41.43 859.67 164.71" fill="none" xmlns="http://www.w3.org/2000/svg">
<path d="M1280.57 41.4336L1219.26 139.072V206.14H1183.54V139.072L1122.23 41.4336H1162.3L1201.4 108.738L1240.5 41.4336H1280.57Z" fill="#CDFB50"/>
<path d="M1071.45 41.4336H1107.41V206.14H1071.45V137.887H1007.49V206.14H971.523V41.4336H1007.49V106.368H1071.45V41.4336Z" fill="#CDFB50"/>
<path d="M952.946 41.4336V72.7159H903.465V206.14H867.501V72.7159H818.021V41.4336H952.946Z" fill="#CDFB50"/>
<path d="M761.877 174.858H838.632V206.14H725.913V41.4336H761.877V174.858Z" fill="#CDFB50"/>
<path d="M623.749 175.569H701.711V206.14H587.785V41.4336H700.263V72.005H623.749V107.079H691.332V137.651H623.749V175.569Z" fill="#CDFB50"/>
<path d="M520.828 41.4336H556.792V206.14H520.828V137.887H456.865V206.14H420.901V41.4336H456.865V106.368H520.828V41.4336Z" fill="#CDFB50"/>
</svg>
