<svg width="2000" height="2000" viewBox="0 0 2000 2000" fill="none" xmlns="http://www.w3.org/2000/svg">
<rect width="2000" height="2000" fill="#151515"/>
<path d="M689.669 628.157H853.688V916.672H1135.38V628.456H1300.15V1371.69H1136.13V1083.58H854.435V1371.79H689.669V628.157Z" fill="#CDFB50"/>
<path d="M1326.13 1081.11V917.42H1466.16C1483.83 917.42 1491.19 924.886 1491.19 942.607V1059.34C1491.19 1074.07 1483.38 1082.63 1469.49 1082.63C1422.95 1082.83 1376.5 1082.63 1329.91 1082.63C1328.92 1082.63 1328.27 1082.63 1326.13 1082.63V1081.11Z" fill="#CDFB50"/>
<path d="M663.184 1082.73C618.085 1082.73 573.782 1082.93 529.33 1082.63C517.483 1082.63 509.07 1073.97 509.07 1062.22C508.822 1020.91 508.822 979.491 509.07 938.176C509.07 926.229 517.433 917.667 529.131 917.567C573.583 917.269 617.985 917.468 663.184 917.468V1082.78V1082.68V1082.73Z" fill="#CDFB50"/>
</svg>
