<svg width="324" height="83" viewBox="0 0 324 83" fill="none" xmlns="http://www.w3.org/2000/svg">
<path d="M2.48584 80.4008V57.0093" stroke="white" stroke-opacity="0.7" stroke-width="4.97213" stroke-linecap="round"/>
<path d="M12.4302 80.4008V57.0093" stroke="white" stroke-opacity="0.7" stroke-width="4.97213" stroke-linecap="round"/>
<path d="M22.3745 80.4008V57.0093" stroke="white" stroke-opacity="0.7" stroke-width="4.97213" stroke-linecap="round"/>
<path d="M32.3188 80.4008L32.3188 68.7051" stroke="white" stroke-opacity="0.7" stroke-width="4.97213" stroke-linecap="round"/>
<path d="M42.2632 80.4008V57.0093" stroke="white" stroke-opacity="0.7" stroke-width="4.97213" stroke-linecap="round"/>
<path d="M52.2065 80.4008V57.0093" stroke="white" stroke-opacity="0.7" stroke-width="4.97213" stroke-linecap="round"/>
<path d="M62.1509 80.4008V57.0093" stroke="white" stroke-opacity="0.7" stroke-width="4.97213" stroke-linecap="round"/>
<path d="M72.0952 80.4008V57.0093" stroke="white" stroke-opacity="0.7" stroke-width="4.97213" stroke-linecap="round"/>
<path d="M82.0396 80.4009V41.9125" stroke="white" stroke-opacity="0.7" stroke-width="4.97213" stroke-linecap="round"/>
<path d="M91.9849 80.4009V41.9125" stroke="white" stroke-opacity="0.7" stroke-width="4.97213" stroke-linecap="round"/>
<path d="M101.928 80.4009V41.9125" stroke="white" stroke-opacity="0.7" stroke-width="4.97213" stroke-linecap="round"/>
<path d="M111.873 80.4008V30.2363" stroke="white" stroke-opacity="0.7" stroke-width="4.97213" stroke-linecap="round"/>
<path d="M121.817 80.4008V30.2363" stroke="white" stroke-opacity="0.7" stroke-width="4.97213" stroke-linecap="round"/>
<path d="M131.761 80.4008V30.2363" stroke="white" stroke-opacity="0.7" stroke-width="4.97213" stroke-linecap="round"/>
<path d="M141.706 80.4008V30.2363" stroke="white" stroke-opacity="0.7" stroke-width="4.97213" stroke-linecap="round"/>
<path d="M151.65 80.4008V20.8457" stroke="white" stroke-opacity="0.7" stroke-width="4.97213" stroke-linecap="round"/>
<path d="M161.594 80.4008V20.8457" stroke="white" stroke-opacity="0.7" stroke-width="4.97213" stroke-linecap="round"/>
<path d="M171.539 80.4008V13.2167" stroke="white" stroke-opacity="0.7" stroke-width="4.97213" stroke-linecap="round"/>
<path d="M181.482 80.4008V13.2167" stroke="white" stroke-opacity="0.7" stroke-width="4.97213" stroke-linecap="round"/>
<path d="M191.427 80.4008L192.364 2.48608" stroke="#CDFB50" stroke-width="4.97213" stroke-linecap="round"/>
<path d="M201.371 80.4008V57.0093" stroke="white" stroke-opacity="0.4" stroke-width="4.97213" stroke-linecap="round"/>
<path d="M211.315 80.4008V57.0093" stroke="white" stroke-opacity="0.4" stroke-width="4.97213" stroke-linecap="round"/>
<path d="M221.259 80.4008V57.0093" stroke="white" stroke-opacity="0.4" stroke-width="4.97213" stroke-linecap="round"/>
<path d="M231.204 80.4008V57.0093" stroke="white" stroke-opacity="0.4" stroke-width="4.97213" stroke-linecap="round"/>
<path d="M241.148 80.4008V57.0093" stroke="white" stroke-opacity="0.4" stroke-width="4.97213" stroke-linecap="round"/>
<path d="M251.092 80.4008V57.0093" stroke="white" stroke-opacity="0.4" stroke-width="4.97213" stroke-linecap="round"/>
<path d="M261.037 80.4008V57.0093" stroke="white" stroke-opacity="0.4" stroke-width="4.97213" stroke-linecap="round"/>
<path d="M270.981 80.4008V57.0093" stroke="white" stroke-opacity="0.4" stroke-width="4.97213" stroke-linecap="round"/>
<path d="M280.925 80.4008V57.0093" stroke="white" stroke-opacity="0.4" stroke-width="4.97213" stroke-linecap="round"/>
<path d="M290.87 80.4008V57.0093" stroke="white" stroke-opacity="0.4" stroke-width="4.97213" stroke-linecap="round"/>
<path d="M300.814 80.4008V57.0093" stroke="white" stroke-opacity="0.4" stroke-width="4.97213" stroke-linecap="round"/>
<path d="M310.758 80.4008V57.0093" stroke="white" stroke-opacity="0.4" stroke-width="4.97213" stroke-linecap="round"/>
<path d="M320.702 80.4008V57.0093" stroke="white" stroke-opacity="0.4" stroke-width="4.97213" stroke-linecap="round"/>
</svg>
